<svg width="24" height="25" viewBox="0 0 24 25" fill="none" xmlns="http://www.w3.org/2000/svg">
<path fill-rule="evenodd" clip-rule="evenodd" d="M9.4889 5.06418C9.37598 4.53721 8.62402 4.53719 8.5111 5.06418L7.31658 10.6386C7.02017 12.0218 5.79778 13.01 4.38317 13.01H3C2.44772 13.01 2 12.5623 2 12.01C2 11.4577 2.44772 11.01 3 11.01H4.38317C4.85471 11.01 5.26217 10.6806 5.36097 10.2196L6.55549 4.64512C7.12011 2.01023 10.8799 2.01021 11.4445 4.64512L14.5111 18.9559C14.624 19.4829 15.376 19.4829 15.4889 18.9559L16.6834 13.3814C16.9798 11.9982 18.2022 11.01 19.6168 11.01H21C21.5523 11.01 22 11.4577 22 12.01C22 12.5623 21.5523 13.01 21 13.01H19.6168C19.1453 13.01 18.7378 13.3394 18.639 13.8005L17.4445 19.3749C16.8799 22.0099 13.1201 22.0098 12.5555 19.3749L9.4889 5.06418Z" fill="#1A1D1F"/>
</svg>
