<svg width="16" height="17" viewBox="0 0 16 17" fill="none" xmlns="http://www.w3.org/2000/svg">
<path fill-rule="evenodd" clip-rule="evenodd" d="M14.6663 8.00944C14.6663 11.6913 11.6816 14.6761 7.99967 14.6761C4.31778 14.6761 1.33301 11.6913 1.33301 8.00944C1.33301 4.32754 4.31778 1.34277 7.99967 1.34277C11.6816 1.34277 14.6663 4.32754 14.6663 8.00944ZM7.99967 7.34277C8.36786 7.34277 8.66634 7.64125 8.66634 8.00944V11.3434C8.66634 11.7116 8.36786 12.01 7.99967 12.01C7.63148 12.01 7.33301 11.7116 7.33301 11.3434V8.00944C7.33301 7.64125 7.63148 7.34277 7.99967 7.34277ZM7.99967 6.00944C8.36786 6.00944 8.66634 5.71096 8.66634 5.34277C8.66634 4.97458 8.36786 4.67611 7.99967 4.67611C7.63148 4.67611 7.33301 4.97458 7.33301 5.34277C7.33301 5.71096 7.63148 6.00944 7.99967 6.00944Z" fill="#9A9FA5"/>
</svg>
