<svg width="24" height="25" viewBox="0 0 24 25" fill="none" xmlns="http://www.w3.org/2000/svg">
<path fill-rule="evenodd" clip-rule="evenodd" d="M12.0001 2.00977C9.79092 2.00977 8.00006 3.80063 8.00006 6.00977H6.64839C5.13542 6.00977 3.85922 7.13637 3.67156 8.63766L2.42156 18.6377C2.19774 20.4282 3.5939 22.0098 5.39839 22.0098H18.6017C20.4062 22.0098 21.8024 20.4282 21.5785 18.6377L20.3285 8.63766C20.1409 7.13637 18.8647 6.00977 17.3517 6.00977H16.0001C16.0001 3.80063 14.2092 2.00977 12.0001 2.00977ZM14.0001 8.00977V9.00977C14.0001 9.56205 14.4478 10.0098 15.0001 10.0098C15.5523 10.0098 16.0001 9.56205 16.0001 9.00977V8.00977H17.3517C17.856 8.00977 18.2814 8.3853 18.344 8.88573L19.594 18.8857C19.6686 19.4826 19.2032 20.0098 18.6017 20.0098H5.39839C4.79689 20.0098 4.33151 19.4826 4.40611 18.8857L5.65611 8.88573C5.71867 8.3853 6.14407 8.00977 6.64839 8.00977H8.00006V9.00977C8.00006 9.56205 8.44778 10.0098 9.00006 10.0098C9.55235 10.0098 10.0001 9.56205 10.0001 9.00977V8.00977H14.0001ZM14.0001 6.00977C14.0001 4.9052 13.1046 4.00977 12.0001 4.00977C10.8955 4.00977 10.0001 4.9052 10.0001 6.00977H14.0001Z" fill="#1A1D1F"/>
</svg>
