<svg width="48" height="48" viewBox="0 0 48 48" fill="none" xmlns="http://www.w3.org/2000/svg">
<g clip-path="url(#clip0_2_4821)">
<g filter="url(#filter0_ii_2_4821)">
<path d="M20 2.3094C22.4752 0.880339 25.5248 0.880339 28 2.3094L40.7846 9.6906C43.2598 11.1197 44.7846 13.7607 44.7846 16.6188V31.3812C44.7846 34.2393 43.2598 36.8803 40.7846 38.3094L28 45.6906C25.5248 47.1197 22.4752 47.1197 20 45.6906L7.21539 38.3094C4.74018 36.8803 3.21539 34.2393 3.21539 31.3812V16.6188C3.21539 13.7607 4.74018 11.1197 7.21539 9.6906L20 2.3094Z" fill="#272B30"/>
</g>
<path d="M12 14.3806V16.4147H15.1698C16.9811 16.4147 18.5434 16.5277 18.8604 16.6633C19.1774 16.7989 19.7434 17.4995 20.1509 18.2001C21.3283 20.302 21.1019 20.2568 29.0717 20.2568H36V18.2227V16.1886H27.6679C21.3509 16.1886 19.2453 16.1208 18.9736 15.8948C18.7698 15.7592 18.1811 15.0134 17.6604 14.2676C17.1623 13.5218 16.5057 12.7986 16.234 12.6404C15.9623 12.4821 14.8981 12.3691 13.8792 12.3465H12V14.3806Z" fill="white"/>
<path d="M12 22.5169V24.551H17.7736C21.4642 24.551 23.7283 24.6414 24.0679 24.7996C24.3849 24.9352 24.9509 25.6358 25.3585 26.3364C26.4679 28.3479 26.6264 28.3931 31.6755 28.3931H36V26.359V24.325H30.2717C26.0377 24.325 24.4528 24.2572 24.1811 24.0311C23.9774 23.8955 23.3887 23.1497 22.8679 22.4039C22.3698 21.6581 21.7132 20.9349 21.4415 20.7767C21.1019 20.5733 19.5623 20.5055 16.483 20.4829H12V22.5169Z" fill="white"/>
<path d="M12 30.653V32.6871H20.3774C25.9698 32.6871 28.9132 32.7775 29.2755 32.9357C29.5925 33.0713 30.1585 33.7719 30.566 34.4725C31.517 36.1902 32.1283 36.5292 34.2792 36.5292H36V34.4951V32.4611H32.8755C30.7245 32.4611 29.6377 32.3707 29.3887 32.1673C29.1849 32.0317 28.5962 31.2858 28.0755 30.54C27.5774 29.7942 26.9208 29.071 26.6491 28.9128C26.2868 28.7094 24.2038 28.6416 19.0868 28.619H12V30.653Z" fill="white"/>
</g>
<defs>
<filter id="filter0_ii_2_4821" x="3.21539" y="0.237549" width="41.5692" height="47.5249" filterUnits="userSpaceOnUse" color-interpolation-filters="sRGB">
<feFlood flood-opacity="0" result="BackgroundImageFix"/>
<feBlend mode="normal" in="SourceGraphic" in2="BackgroundImageFix" result="shape"/>
<feColorMatrix in="SourceAlpha" type="matrix" values="0 0 0 0 0 0 0 0 0 0 0 0 0 0 0 0 0 0 127 0" result="hardAlpha"/>
<feOffset dy="-1"/>
<feGaussianBlur stdDeviation="1"/>
<feComposite in2="hardAlpha" operator="arithmetic" k2="-1" k3="1"/>
<feColorMatrix type="matrix" values="0 0 0 0 0 0 0 0 0 0 0 0 0 0 0 0 0 0 0.53 0"/>
<feBlend mode="multiply" in2="shape" result="effect1_innerShadow_2_4821"/>
<feColorMatrix in="SourceAlpha" type="matrix" values="0 0 0 0 0 0 0 0 0 0 0 0 0 0 0 0 0 0 127 0" result="hardAlpha"/>
<feOffset dy="1"/>
<feGaussianBlur stdDeviation="0.5"/>
<feComposite in2="hardAlpha" operator="arithmetic" k2="-1" k3="1"/>
<feColorMatrix type="matrix" values="0 0 0 0 0.838444 0 0 0 0 0.838444 0 0 0 0 0.838444 0 0 0 0.25 0"/>
<feBlend mode="normal" in2="effect1_innerShadow_2_4821" result="effect2_innerShadow_2_4821"/>
</filter>
<clipPath id="clip0_2_4821">
<rect width="48" height="48" fill="white"/>
</clipPath>
</defs>
</svg>
