<svg width="24" height="25" viewBox="0 0 24 25" fill="none" xmlns="http://www.w3.org/2000/svg">
<path d="M8 12.0098C8 13.1143 7.10457 14.0098 6 14.0098C4.89543 14.0098 4 13.1143 4 12.0098C4 10.9052 4.89543 10.0098 6 10.0098C7.10457 10.0098 8 10.9052 8 12.0098Z" fill="#1A1D1F"/>
<path d="M14 12.0098C14 13.1143 13.1046 14.0098 12 14.0098C10.8954 14.0098 10 13.1143 10 12.0098C10 10.9052 10.8954 10.0098 12 10.0098C13.1046 10.0098 14 10.9052 14 12.0098Z" fill="#1A1D1F"/>
<path d="M20 12.0098C20 13.1143 19.1046 14.0098 18 14.0098C16.8954 14.0098 16 13.1143 16 12.0098C16 10.9052 16.8954 10.0098 18 10.0098C19.1046 10.0098 20 10.9052 20 12.0098Z" fill="#1A1D1F"/>
</svg>
